:SAMPLES-PER-SECOND 30
:FULLY-SPECIFIED
:DEGREES
490
root  -66.7785 39.8105 -1.69612 -11.5839 -63.6645 9.9881
RightUpLeg  -16.7082 23.5401 -13.3602
RightLeg  14.8973 21.8251 3.65528
RightFoot  -6.72208 -0.432985 9.54318
RightToes  -2.32831e-009 0 -3.6325e-017
Spine  9.80051 -0.424992 -1.26592
Spine1  4.19144 0.0863982 -2.5762
HEad  -22.4898 8.6061 -13.0217
LeftShoulder1  -0.298355 4.28958 -31.8017
LeftArm  15.6634 -9.37082 -49.7114
LeftForeArm  22.7221 -37.0434 -7.07865
LeftHand  -0.024685 7.65789 0.860624
RightShoulder  -0.909531 -5.99981 29.8538
RightArm  26.9978 -4.02412 45.5839
RightForeArm  7.82277 20.8575 4.76523
RightHand  0.0710529 6.90654 0.325626
LeftUpLeg  -10.8247 -11.849 -6.70182
LeftLeg  19.1311 -14.0784 -4.40882
LeftFoot  -4.95946 -0.23568 4.75978
LeftToes  8.91272e-011 -1.70619e-011 7.36378e-012
491
root  -67.1399 39.8084 -2.10468 -8.79456 -57.3066 7.63898
RightUpLeg  -16.7754 25.3678 -14.0499
RightLeg  16.6353 12.103 3.03083
RightFoot  -7.49875 -0.322002 8.24514
RightToes  -2.32831e-009 0 -3.6325e-017
Spine  10.4079 -0.0804785 1.41631
Spine1  4.13613 0.780276 -3.42223
HEad  -22.2626 12.6934 -15.5746
LeftShoulder1  -0.370297 4.46608 -32.3602
LeftArm  23.138 -12.2273 -51.6332
LeftForeArm  19.1399 -32.0293 -5.94897
LeftHand  -0.0361849 8.68294 0.369155
RightShoulder  -0.87066 -5.8986 29.7559
RightArm  28.3967 -3.69495 44.76
RightForeArm  7.31869 19.1147 5.41651
RightHand  -0.0325596 7.32372 -0.666088
LeftUpLeg  -11.6178 -17.518 -5.73599
LeftLeg  19.4974 -14.9049 -5.31474
LeftFoot  -5.14955 -0.173225 3.78636
LeftToes  8.91272e-011 -1.70619e-011 7.36378e-012
492
root  -67.4955 39.8446 -2.4836 -6.93243 -51.442 6.64929
RightUpLeg  -16.2436 19.258 -13.2724
RightLeg  17.4655 12.2791 3.22254
RightFoot  -5.83467 -0.35292 6.4503
RightToes  -2.32831e-009 0 -3.6325e-017
Spine  10.6384 0.351352 4.31969
Spine1  3.88773 1.71456 -4.76811
HEad  -21.9094 16.293 -17.379
LeftShoulder1  -0.316527 4.32508 -32.4001
LeftArm  28.8864 -13.3234 -53.9047
LeftForeArm  16.4723 -26.502 -4.81954
LeftHand  -0.0272454 7.36984 0.698775
RightShoulder  -0.80906 -5.76721 29.1147
RightArm  29.3192 -3.32354 44.4725
RightForeArm  9.48769 16.927 6.4584
RightHand  0.0572116 7.27448 0.173258
LeftUpLeg  -12.5066 -20.3939 -4.93389
LeftLeg  19.1534 -17.8993 -6.42075
LeftFoot  -5.16083 -0.109347 2.5856
LeftToes  8.91272e-011 -1.70619e-011 7.36378e-012
493
root  -67.9259 39.9013 -2.87945 -5.09064 -44.9009 5.48309
RightUpLeg  -14.9147 10.5112 -11.8156
RightLeg  17.566 14.0485 3.15109
RightFoot  -6.15478 -0.332834 6.41597
RightToes  -2.32831e-009 0 -3.6325e-017
Spine  10.5551 0.547759 6.46339
Spine1  3.55427 2.11977 -5.19989
HEad  -21.2332 20.0555 -18.3161
LeftShoulder1  -0.311801 4.31334 -32.2806
LeftArm  30.2503 -13.8491 -55.581
LeftForeArm  16.6751 -20.5155 -5.42552
LeftHand  -0.0252387 7.74147 0.755669
RightShoulder  -0.692998 -5.48605 28.2834
RightArm  30.6501 -3.35307 44.1349
RightForeArm  11.4306 15.5693 7.34331
RightHand  0.155862 6.52376 1.15745
LeftUpLeg  -13.3707 -22.833 -3.64614
LeftLeg  18.8471 -22.0512 -7.78114
LeftFoot  -5.72234 0.0133045 0.436568
LeftToes  8.91272e-011 -1.70619e-011 7.36378e-012
494
root  -68.3927 39.9778 -3.32992 -2.2605 -37.6757 3.82336
RightUpLeg  -14.3146 1.19742 -9.92746
RightLeg  17.0348 15.5075 2.82206
RightFoot  -6.43152 -0.316254 6.34855
RightToes  -2.32831e-009 0 -3.6325e-017
Spine  9.91426 0.469069 8.09669
Spine1  2.79348 1.91957 -4.74659
HEad  -22.0508 25.2887 -20.381
LeftShoulder1  -0.471941 4.71154 -32.9279
LeftArm  20.5345 -14.3145 -55.0234
LeftForeArm  27.2586 -14.4306 -9.568
LeftHand  -0.0362149 8.63889 0.517684
RightShoulder  -0.629415 -5.31335 28.0599
RightArm  34.5332 -3.13113 43.172
RightForeArm  11.2241 15.4774 7.86812
RightHand  0.0799573 5.76111 0.510783
LeftUpLeg  -15.4824 -23.8977 -1.40993
LeftLeg  18.6232 -25.6343 -8.89088
LeftFoot  -6.44399 0.11442 -1.82886
LeftToes  8.91272e-011 -1.70619e-011 7.36378e-012
495
root  -68.8874 40.0938 -3.7385 -0.192993 -30.6591 2.6955
RightUpLeg  -13.4891 -5.97457 -8.58558
RightLeg  15.8726 15.2993 2.6431
RightFoot  -6.65286 -0.299241 6.19313
RightToes  -2.32831e-009 0 -3.6325e-017
Spine  9.13818 0.62924 9.57681
Spine1  2.4225 2.03956 -4.7028
HEad  -23.6548 31.2133 -21.9702
LeftShoulder1  -0.349694 4.40791 -32.5488
LeftArm  9.95588 -13.2994 -53.9949
LeftForeArm  36.0899 -9.70992 -11.2459
LeftHand  -0.0926068 11.1658 -0.638835
RightShoulder  -0.679332 -5.449 28.2271
RightArm  37.5536 -3.37534 42.039
RightForeArm  9.9452 16.1588 7.75569
RightHand  0.00143263 5.77888 -0.31311
LeftUpLeg  -16.9448 -21.5895 -0.186415
LeftLeg  17.217 -23.431 -7.43801
LeftFoot  -7.0455 0.226623 -4.84178
LeftToes  8.91272e-011 -1.70619e-011 7.36378e-012
496
root  -69.3565 40.2128 -4.13198 0.853394 -23.7989 2.30969
RightUpLeg  -12.3448 -9.76895 -8.28335
RightLeg  14.7532 12.1821 2.47483
RightFoot  -6.76485 -0.277904 5.79987
RightToes  -2.32831e-009 0 -3.6325e-017
Spine  8.95753 0.776745 10.0927
Spine1  2.12015 2.11911 -4.49197
HEad  -25.6706 37.0533 -23.2459
LeftShoulder1  -0.376488 4.46978 -32.8389
LeftArm  5.75079 -13.0154 -51.6809
LeftForeArm  39.287 -7.25652 -11.5421
LeftHand  -0.0928853 11.0464 -0.643075
RightShoulder  -0.610901 -5.28332 27.6045
RightArm  38.9314 -4.59845 41.6109
RightForeArm  7.95136 17.4769 7.02236
RightHand  -0.0547426 5.75297 -0.893636
LeftUpLeg  -17.602 -15.7332 -0.737854
LeftLeg  15.5645 -14.4552 -4.012
LeftFoot  -6.55857 0.256475 -5.23069
LeftToes  8.91272e-011 -1.70619e-011 7.36378e-012
497
root  -69.859 40.4082 -4.52455 1.76294 -16.413 2.40027
RightUpLeg  -10.8615 -11.784 -8.48166
RightLeg  12.8334 6.80519 1.99382
RightFoot  -6.26842 -0.272747 5.20164
RightToes  -2.32831e-009 0 -3.6325e-017
Spine  8.68122 0.912735 9.47859
Spine1  1.93431 2.13351 -4.15828
HEad  -27.6918 40.9252 -23.9146
LeftShoulder1  -0.351185 4.42537 -31.9798
LeftArm  2.13667 -12.8494 -50.3467
LeftForeArm  41.5994 -5.48885 -11.1778
LeftHand  -0.140327 10.4118 -1.72232
RightShoulder  -0.617299 -5.29805 27.6783
RightArm  39.233 -5.85135 40.9735
RightForeArm  6.21899 18.7557 6.25327
RightHand  -0.105792 6.03082 -1.41016
LeftUpLeg  -17.9535 -7.80764 -2.4304
LeftLeg  14.2408 -5.54304 -1.02156
LeftFoot  -5.6983 0.160308 -2.59599
LeftToes  8.91272e-011 -1.70619e-011 7.36378e-012
498
root  -70.3724 40.5639 -4.87045 2.68756 -8.45204 2.52948
RightUpLeg  -9.56491 -12.9091 -8.69951
RightLeg  11.517 0.0200382 1.68341
RightFoot  -5.90269 -0.245885 4.31987
RightToes  -2.32831e-009 0 -3.6325e-017
Spine  8.14263 1.01178 8.58517
Spine1  2.08971 1.98356 -3.26145
HEad  -29.6552 43.4089 -24.3937
LeftShoulder1  -0.310313 4.31513 -32.1211
LeftArm  -0.169242 -13.718 -48.6582
LeftForeArm  40.3192 -3.61938 -10.8841
LeftHand  -0.0106143 9.95773 0.834549
RightShoulder  -0.577747 -5.19771 27.3527
RightArm  38.0102 -7.01421 41.0289
RightForeArm  7.09363 19.5604 5.69665
RightHand  -0.118212 5.82069 -1.53692
LeftUpLeg  -18.3802 -0.48657 -4.38961
LeftLeg  13.5832 0.200516 0.366189
LeftFoot  -4.59457 0.0717439 -0.720479
LeftToes  8.91272e-011 -1.70619e-011 7.36378e-012
499
root  -70.8813 40.6233 -5.10367 3.38293 0.0232697 2.36682
RightUpLeg  -8.1251 -13.435 -8.61007
RightLeg  11.0002 -7.78133 1.39103
RightFoot  -6.27677 -0.219598 3.99648
RightToes  -2.32831e-009 0 -3.6325e-017
Spine  7.99134 0.897859 8.57557
Spine1  1.79868 1.78443 -2.94649
HEad  -30.7116 44.5034 -23.3767
LeftShoulder1  -0.325119 4.36056 -31.8101
LeftArm  -0.780597 -14.7583 -47.6545
LeftForeArm  38.3522 -2.75398 -10.6824
LeftHand  0.109876 12.1127 2.98437
RightShoulder  -0.538668 -5.07582 27.4531
RightArm  37.3554 -8.41756 40.692
RightForeArm  9.33676 20.9242 4.92248
RightHand  0.0590311 5.83831 0.275881
LeftUpLeg  -18.6795 5.24583 -5.80314
LeftLeg  13.8022 2.19459 0.534225
LeftFoot  -4.37606 0.0517731 -0.416532
LeftToes  8.91272e-011 -1.70619e-011 7.36378e-012
500
root  -71.3709 40.6749 -5.23823 3.55646 8.04172 2.50836
RightUpLeg  -6.37211 -14.1981 -8.84597
RightLeg  10.8035 -14.7314 1.36873
RightFoot  -6.70356 -0.196553 3.72734
RightToes  -2.32831e-009 0 -3.6325e-017
Spine  8.05486 1.09294 8.77578
Spine1  1.91393 2.16973 -3.61468
HEad  -30.6454 43.952 -21.969
LeftShoulder1  -0.234646 4.13716 -30.8351
LeftArm  -1.80989 -16.418 -47.8416
LeftForeArm  36.4539 -1.90877 -9.9779
LeftHand  0.0830886 12.124 2.44696
RightShoulder  -0.724167 -5.55603 28.5925
RightArm  38.5532 -9.12017 40.3315
RightForeArm  6.33152 21.7746 4.83432
RightHand  -0.0475665 5.8142 -0.815858
LeftUpLeg  -18.2679 9.93145 -7.07284
LeftLeg  14.0561 2.95782 0.588322
LeftFoot  -4.631 0.0586413 -0.526167
LeftToes  8.91272e-011 -1.70619e-011 7.36378e-012
501
root  -71.8319 40.7008 -5.29832 4.31403 16.2139 2.50824
RightUpLeg  -5.50079 -14.1636 -8.39077
RightLeg  11.0126 -22.6851 0.686467
RightFoot  -7.04034 -0.184699 3.64526
RightToes  -2.32831e-009 0 -3.6325e-017
Spine  7.57123 1.21392 9.18549
Spine1  1.87495 2.46078 -4.46533
HEad  -29.5678 41.0244 -19.364
LeftShoulder1  -0.146621 3.91269 -29.7943
LeftArm  -2.28767 -17.8615 -48.4042
LeftForeArm  35.4518 -1.52646 -9.52136
LeftHand  0.0339122 10.9134 1.90699
RightShoulder  -0.851731 -5.84462 29.7967
RightArm  39.6187 -9.34586 40.0423
RightForeArm  3.39875 22.3329 4.87961
RightHand  -0.159799 6.02662 -1.95292
LeftUpLeg  -18.563 13.721 -7.98607
LeftLeg  14.5195 3.96388 0.946463
LeftFoot  -4.88533 0.0306127 -0.0126835
LeftToes  8.91272e-011 -1.70619e-011 7.36378e-012
502
root  -72.232 40.7297 -5.24685 4.92279 23.843 2.59088
RightUpLeg  -4.38818 -14.3493 -7.98852
RightLeg  11.0187 -29.8319 0.321858
RightFoot  -7.36985 -0.174954 3.59129
RightToes  -2.32831e-009 0 -3.6325e-017
Spine  6.85418 1.72754 8.22436
Spine1  2.34755 2.70878 -3.28512
HEad  -27.9543 36.8887 -17.481
LeftShoulder1  -0.239265 4.16032 -30.2708
LeftArm  -1.54454 -19.5261 -48.8878
LeftForeArm  35.2098 -1.80242 -9.89198
LeftHand  0.0391586 10.6091 2.13159
RightShoulder  -0.734547 -5.56621 28.9275
RightArm  38.8375 -9.75805 41.0247
RightForeArm  1.84502 22.2965 4.96055
RightHand  -0.245163 5.97933 -2.83774
LeftUpLeg  -18.1599 16.7045 -8.29222
LeftLeg  14.2642 6.4863 1.33993
LeftFoot  -5.28376 -0.0348227 1.25511
LeftToes  8.91272e-011 -1.70619e-011 7.36378e-012
